<svg width="45" height="32" viewBox="0 0 45 32" fill="none" xmlns="http://www.w3.org/2000/svg">
<path d="M7.25446 0.561523C5.33046 0.561523 3.48526 1.32876 2.12478 2.69446C0.764307 4.06015 0 5.91243 0 7.84382V10.6447H44.6429V7.84382C44.6429 6.88749 44.4552 5.94053 44.0906 5.057C43.7261 4.17348 43.1917 3.37068 42.5181 2.69446C41.8444 2.01823 41.0447 1.48183 40.1646 1.11586C39.2844 0.749886 38.3411 0.561523 37.3884 0.561523H7.25446ZM44.6429 14.0058H0V24.6491C0 26.5805 0.764307 28.4328 2.12478 29.7985C3.48526 31.1642 5.33046 31.9314 7.25446 31.9314H37.3884C38.3411 31.9314 39.2844 31.743 40.1646 31.3771C41.0447 31.0111 41.8444 30.4747 42.5181 29.7985C43.1917 29.1222 43.7261 28.3195 44.0906 27.4359C44.4552 26.5524 44.6429 25.6054 44.6429 24.6491V14.0058ZM30.692 21.8482H36.2723C36.7163 21.8482 37.1421 22.0253 37.4561 22.3404C37.7701 22.6556 37.9464 23.0831 37.9464 23.5288C37.9464 23.9745 37.7701 24.4019 37.4561 24.7171C37.1421 25.0322 36.7163 25.2093 36.2723 25.2093H30.692C30.248 25.2093 29.8221 25.0322 29.5082 24.7171C29.1942 24.4019 29.0179 23.9745 29.0179 23.5288C29.0179 23.0831 29.1942 22.6556 29.5082 22.3404C29.8221 22.0253 30.248 21.8482 30.692 21.8482Z" fill="#3F9EC8"/>
</svg>
