<svg width="40" height="40" viewBox="0 0 40 40" fill="none" xmlns="http://www.w3.org/2000/svg">
<g clip-path="url(#clip0_325_1254)">
<path d="M21.7889 20L27.1889 14.6C27.3709 14.3874 27.466 14.114 27.4552 13.8344C27.4444 13.5547 27.3285 13.2895 27.1306 13.0916C26.9327 12.8937 26.6675 12.7778 26.3878 12.767C26.1082 12.7562 25.8348 12.8513 25.6222 13.0333L20.2222 18.3778L14.7889 12.9444C14.5763 12.7624 14.3029 12.6673 14.0233 12.6781C13.7436 12.6889 13.4784 12.8048 13.2805 13.0027C13.0826 13.2006 12.9667 13.4658 12.9559 13.7455C12.9451 14.0251 13.0402 14.2985 13.2222 14.5111L18.6444 20L13.3333 25.2444C13.217 25.344 13.1225 25.4666 13.0559 25.6045C12.9892 25.7423 12.9517 25.8925 12.9458 26.0455C12.9399 26.1985 12.9656 26.3511 13.0215 26.4937C13.0774 26.6362 13.1621 26.7657 13.2704 26.874C13.3787 26.9823 13.5082 27.067 13.6507 27.1229C13.7933 27.1788 13.9459 27.2046 14.0989 27.1986C14.252 27.1927 14.4021 27.1553 14.54 27.0886C14.6778 27.0219 14.8004 26.9274 14.9 26.8111L20.2 21.5111L25.4667 26.7778C25.6792 26.9598 25.9526 27.0549 26.2323 27.0441C26.5119 27.0333 26.7772 26.9174 26.9751 26.7195C27.1729 26.5216 27.2889 26.2563 27.2997 25.9767C27.3105 25.6971 27.2154 25.4236 27.0333 25.2111L21.7889 20Z" fill="#FF2F2F"/>
<path d="M20 37.7777C16.4839 37.7777 13.0468 36.7351 10.1232 34.7816C7.19967 32.8282 4.92105 30.0517 3.57549 26.8032C2.22993 23.5548 1.87787 19.9802 2.56383 16.5317C3.24979 13.0831 4.94296 9.91543 7.42923 7.42917C9.91549 4.9429 13.0832 3.24973 16.5317 2.56377C19.9803 1.87781 23.5548 2.22987 26.8033 3.57543C30.0517 4.92099 32.8283 7.19961 34.7817 10.1231C36.7351 13.0467 37.7778 16.4838 37.7778 20C37.7778 24.7149 35.9048 29.2368 32.5708 32.5707C29.2368 35.9047 24.715 37.7777 20 37.7777V37.7777ZM20 4.4444C16.9234 4.4444 13.9159 5.35672 11.3578 7.06598C8.79971 8.77525 6.80592 11.2047 5.62856 14.0471C4.45119 16.8895 4.14314 20.0172 4.74336 23.0347C5.34357 26.0522 6.82509 28.8239 9.00058 30.9994C11.1761 33.1749 13.9478 34.6564 16.9653 35.2566C19.9828 35.8568 23.1105 35.5488 25.9529 34.3714C28.7953 33.1941 31.2247 31.2003 32.934 28.6422C34.6433 26.0841 35.5556 23.0766 35.5556 20C35.5556 15.8744 33.9167 11.9177 30.9995 9.00051C28.0822 6.08328 24.1256 4.4444 20 4.4444V4.4444Z" fill="#FF2F2F"/>
</g>
<defs>
<clipPath id="clip0_325_1254">
<rect width="40" height="40" fill="white"/>
</clipPath>
</defs>
</svg>
