<svg width="48" height="56" viewBox="0 0 48 56" fill="none" xmlns="http://www.w3.org/2000/svg">
<path d="M46.0417 1.79162C45.6562 1.40536 45.1984 1.09891 44.6943 0.88982C44.1903 0.68073 43.6499 0.573104 43.1042 0.573104C42.5585 0.573104 42.0182 0.68073 41.5141 0.88982C41.01 1.09891 40.5522 1.40536 40.1667 1.79162L24 17.9166L7.7917 1.74995C7.40594 1.3642 6.94798 1.0582 6.44397 0.849426C5.93995 0.640655 5.39975 0.533203 4.8542 0.533203C4.30866 0.533203 3.76846 0.640655 3.26444 0.849426C2.76042 1.0582 2.30246 1.3642 1.9167 1.74995C1.53094 2.13571 1.22494 2.59367 1.01617 3.09769C0.807403 3.60171 0.699951 4.14191 0.699951 4.68746C0.699951 5.233 0.807403 5.7732 1.01617 6.27722C1.22494 6.78124 1.53094 7.2392 1.9167 7.62496L21.0417 26.75C22.6667 28.375 25.2917 28.375 26.9167 26.75L46.0417 7.62496C46.4277 7.24361 46.7342 6.78944 46.9433 6.28877C47.1525 5.7881 47.2602 5.25089 47.2602 4.70829C47.2602 4.16568 47.1525 3.62848 46.9433 3.12781C46.7342 2.62714 46.4277 2.17297 46.0417 1.79162Z" fill="white"/>
<path d="M46.0418 29.2501C45.6563 28.8639 45.1984 28.5574 44.6944 28.3483C44.1903 28.1392 43.65 28.0316 43.1043 28.0316C42.5586 28.0316 42.0182 28.1392 41.5142 28.3483C41.0101 28.5574 40.5523 28.8639 40.1668 29.2501L24.0001 45.3751L7.83345 29.2085C7.05438 28.4294 5.99773 27.9917 4.89595 27.9917C3.79418 27.9917 2.73753 28.4294 1.95845 29.2085C1.17938 29.9875 0.741699 31.0442 0.741699 32.146C0.741699 33.2477 1.17938 34.3044 1.95845 35.0835L21.0835 54.2085C22.7085 55.8335 25.3335 55.8335 26.9585 54.2085L46.0834 35.0835C46.8484 34.3028 47.2733 33.2511 47.2655 32.1582C47.2577 31.0653 46.8178 30.0198 46.0418 29.2501V29.2501Z" fill="white"/>
</svg>
