<svg width="31" height="42" viewBox="0 0 31 42" fill="none" xmlns="http://www.w3.org/2000/svg">
<path d="M5.16667 0C2.31693 0 0 2.31693 0 5.16667V36.1667C0 39.0164 2.31693 41.3333 5.16667 41.3333H25.8333C28.6831 41.3333 31 39.0164 31 36.1667V12.9167H20.6667C19.2378 12.9167 18.0833 11.7622 18.0833 10.3333V0H5.16667ZM20.6667 0V10.3333H31L20.6667 0ZM5.16667 6.45833C5.16667 5.74792 5.74792 5.16667 6.45833 5.16667H11.625C12.3354 5.16667 12.9167 5.74792 12.9167 6.45833C12.9167 7.16875 12.3354 7.75 11.625 7.75H6.45833C5.74792 7.75 5.16667 7.16875 5.16667 6.45833ZM5.16667 11.625C5.16667 10.9146 5.74792 10.3333 6.45833 10.3333H11.625C12.3354 10.3333 12.9167 10.9146 12.9167 11.625C12.9167 12.3354 12.3354 12.9167 11.625 12.9167H6.45833C5.74792 12.9167 5.16667 12.3354 5.16667 11.625ZM15.5 17.4375C16.2104 17.4375 16.7917 18.0187 16.7917 18.7292V20.1258C17.4779 20.2227 18.1398 20.376 18.7372 20.5375C19.4234 20.7232 19.8352 21.4255 19.6495 22.1198C19.4638 22.8141 18.7615 23.2177 18.0672 23.032C17.1711 22.7898 16.2911 22.6122 15.4758 22.6042C14.7977 22.5961 14.0711 22.7495 13.5706 23.0482C13.1104 23.3227 12.9167 23.6375 12.9167 24.0815C12.9167 24.3802 13.0216 24.6062 13.506 24.8969C14.063 25.2279 14.8461 25.4701 15.8633 25.7768L15.9036 25.7849C16.8159 26.0594 17.9461 26.3984 18.8341 26.9635C19.8109 27.5771 20.6424 28.5539 20.6667 30.0474C20.6909 31.6055 19.8917 32.7357 18.818 33.4057C18.1964 33.7932 17.494 34.0193 16.7917 34.1404V35.5208C16.7917 36.2313 16.2104 36.8125 15.5 36.8125C14.7896 36.8125 14.2083 36.2313 14.2083 35.5208V34.0839C13.3042 33.9143 12.4565 33.6237 11.7138 33.3654C11.5443 33.3089 11.3747 33.2523 11.2133 33.1958C10.5352 32.9698 10.1719 32.2352 10.3979 31.5651C10.624 30.8951 11.3586 30.5237 12.0286 30.7497C12.2305 30.8143 12.4161 30.8789 12.6018 30.9435C13.6997 31.3148 14.5878 31.6216 15.5323 31.6458C16.2669 31.6701 16.9773 31.5086 17.4456 31.218C17.8573 30.9596 18.0833 30.6286 18.0753 30.0878C18.0672 29.7164 17.9299 29.4581 17.4536 29.1513C16.9047 28.8042 16.1216 28.5539 15.1125 28.2471L14.9833 28.2068C14.0953 27.9404 13.0216 27.6174 12.174 27.1008C11.2052 26.5195 10.3495 25.575 10.3414 24.0896C10.3333 22.5234 11.2133 21.4417 12.2628 20.8201C12.8682 20.4648 13.5383 20.2388 14.2083 20.1177V18.7292C14.2083 18.0187 14.7896 17.4375 15.5 17.4375Z" fill="#3F9EC8"/>
</svg>
