<svg width="19" height="32" viewBox="0 0 19 32" fill="none" xmlns="http://www.w3.org/2000/svg">
<path d="M1.28455 16.4582L1.2837 16.4558C1.23468 16.3196 1.20825 16.169 1.20825 16.0002C1.20825 15.8313 1.23468 15.6807 1.2837 15.5445L1.28455 15.5421C1.32525 15.4273 1.39861 15.3086 1.52014 15.187L15.5618 1.14538C15.8508 0.856392 16.2069 0.708496 16.6666 0.708496C17.1158 0.708496 17.4891 0.863081 17.813 1.18705C18.1422 1.51626 18.2916 1.87755 18.2916 2.29183C18.2916 2.70611 18.1422 3.0674 17.813 3.39661L5.56303 15.6466L5.20948 16.0002L5.56303 16.3537L17.813 28.6037C18.1046 28.8953 18.2499 29.2455 18.2499 29.6868C18.2499 30.1193 18.0978 30.4868 17.7714 30.8133C17.4422 31.1425 17.0809 31.2918 16.6666 31.2918C16.2523 31.2918 15.891 31.1425 15.5618 30.8133L15.2083 31.1668L15.5613 30.8128L1.52014 16.8133C1.5201 16.8132 1.52006 16.8132 1.52002 16.8132C1.39856 16.6917 1.32524 16.573 1.28455 16.4582ZM0.813252 16.6252L0.813419 16.6251L0.813252 16.6252Z" fill="white" stroke="#3F9EC8"/>
</svg>
