<svg width="19" height="32" viewBox="0 0 19 32" fill="none" xmlns="http://www.w3.org/2000/svg">
<path d="M17.7154 15.5418L17.7163 15.5442C17.7653 15.6804 17.7917 15.831 17.7917 15.9998C17.7917 16.1687 17.7653 16.3193 17.7163 16.4555L17.7155 16.4579C17.6747 16.5727 17.6014 16.6914 17.4799 16.813L3.4382 30.8546C3.1492 31.1436 2.79307 31.2915 2.33342 31.2915C1.8842 31.2915 1.51094 31.1369 1.18697 30.813C0.857758 30.4837 0.708416 30.1224 0.708416 29.7082C0.708416 29.2939 0.857758 28.9326 1.18697 28.6034L13.437 16.3534L13.7905 15.9998L13.437 15.6463L1.18697 3.39628C0.895391 3.10471 0.750082 2.75455 0.750082 2.31317C0.750082 1.8807 0.902197 1.51316 1.22864 1.18672C1.55785 0.857512 1.91914 0.70817 2.33342 0.70817C2.74769 0.70817 3.10898 0.857512 3.4382 1.18672L3.79175 0.83317L3.43872 1.18725L17.4799 15.1867C17.4799 15.1868 17.4799 15.1868 17.48 15.1868C17.6014 15.3083 17.6748 15.427 17.7154 15.5418ZM18.1867 15.3748L18.1866 15.3749L18.1867 15.3748Z" fill="white" stroke="#3F9EC8"/>
</svg>
