<svg width="40" height="40" viewBox="0 0 40 40" fill="none" xmlns="http://www.w3.org/2000/svg">
<path d="M4.44444 40H35.5555C36.7343 40 37.8647 39.5317 38.6982 38.6983C39.5317 37.8648 40 36.7343 40 35.5556V11.1111C40.0017 10.8187 39.9456 10.5288 39.835 10.258C39.7244 9.98726 39.5615 9.74101 39.3555 9.53336L30.4666 0.644481C30.259 0.438522 30.0127 0.275578 29.742 0.16499C29.4712 0.0544019 29.1813 -0.00165373 28.8889 3.71428e-05H4.44444C3.2657 3.71428e-05 2.13524 0.468289 1.30175 1.30178C0.468252 2.13528 0 3.26574 0 4.44448V35.5556C0 36.7343 0.468252 37.8648 1.30175 38.6983C2.13524 39.5317 3.2657 40 4.44444 40ZM26.6666 35.5556H13.3333V24.4445H26.6666V35.5556ZM22.2222 8.88892H17.7778V4.44448H22.2222V8.88892ZM4.44444 4.44448H8.88888V13.3334H26.6666V4.44448H27.9778L35.5555 12.0222V35.5556H31.1111V24.4445C31.1111 23.2657 30.6428 22.1353 29.8093 21.3018C28.9758 20.4683 27.8454 20 26.6666 20H13.3333C12.1546 20 11.0241 20.4683 10.1906 21.3018C9.35713 22.1353 8.88888 23.2657 8.88888 24.4445V35.5556H4.44444V4.44448Z" fill="#3F9EC8"/>
</svg>
