<svg width="44" height="32" viewBox="0 0 44 32" fill="none" xmlns="http://www.w3.org/2000/svg">
<path fill-rule="evenodd" clip-rule="evenodd" d="M1.68165e-05 3.90625C1.68165e-05 1.74792 1.75002 0 3.90627 0H39.8438C42 0 43.75 1.75 43.75 3.90625V10.2104C43.7502 10.4849 43.6781 10.7545 43.5409 10.9922C43.4038 11.23 43.2064 11.4274 42.9688 11.5646C42.2552 11.9754 41.6625 12.5671 41.2504 13.2799C40.8383 13.9928 40.6213 14.8016 40.6213 15.625C40.6213 16.4484 40.8383 17.2572 41.2504 17.9701C41.6625 18.6829 42.2552 19.2746 42.9688 19.6854C43.2064 19.8226 43.4038 20.02 43.5409 20.2578C43.6781 20.4955 43.7502 20.7651 43.75 21.0396V27.3437C43.75 29.5 42 31.25 39.8438 31.25H3.90627C2.87026 31.25 1.87669 30.8384 1.14413 30.1059C0.411567 29.3733 1.68165e-05 28.3798 1.68165e-05 27.3437V21.0396C-0.000370374 20.7653 0.0714286 20.4958 0.208199 20.2581C0.34497 20.0204 0.541894 19.8229 0.779183 19.6854C1.49274 19.2746 2.08542 18.6829 2.49753 17.9701C2.90964 17.2572 3.12662 16.4484 3.12662 15.625C3.12662 14.8016 2.90964 13.9928 2.49753 13.2799C2.08542 12.5671 1.49274 11.9754 0.779183 11.5646C0.541894 11.4271 0.34497 11.2296 0.208199 10.9919C0.0714286 10.7542 -0.000370374 10.4847 1.68165e-05 10.2104V3.90625ZM31.25 1.5625C31.6644 1.5625 32.0618 1.72712 32.3549 2.02015C32.6479 2.31317 32.8125 2.7106 32.8125 3.125V4.6875C32.8125 5.1019 32.6479 5.49933 32.3549 5.79235C32.0618 6.08538 31.6644 6.25 31.25 6.25C30.8356 6.25 30.4382 6.08538 30.1452 5.79235C29.8521 5.49933 29.6875 5.1019 29.6875 4.6875V3.125C29.6875 2.7106 29.8521 2.31317 30.1452 2.02015C30.4382 1.72712 30.8356 1.5625 31.25 1.5625ZM32.8125 10.9375C32.8125 10.5231 32.6479 10.1257 32.3549 9.83265C32.0618 9.53962 31.6644 9.375 31.25 9.375C30.8356 9.375 30.4382 9.53962 30.1452 9.83265C29.8521 10.1257 29.6875 10.5231 29.6875 10.9375V12.5C29.6875 12.9144 29.8521 13.3118 30.1452 13.6049C30.4382 13.8979 30.8356 14.0625 31.25 14.0625C31.6644 14.0625 32.0618 13.8979 32.3549 13.6049C32.6479 13.3118 32.8125 12.9144 32.8125 12.5V10.9375ZM31.25 17.1875C31.6644 17.1875 32.0618 17.3521 32.3549 17.6451C32.6479 17.9382 32.8125 18.3356 32.8125 18.75V20.3125C32.8125 20.7269 32.6479 21.1243 32.3549 21.4174C32.0618 21.7104 31.6644 21.875 31.25 21.875C30.8356 21.875 30.4382 21.7104 30.1452 21.4174C29.8521 21.1243 29.6875 20.7269 29.6875 20.3125V18.75C29.6875 18.3356 29.8521 17.9382 30.1452 17.6451C30.4382 17.3521 30.8356 17.1875 31.25 17.1875ZM32.8125 26.5625C32.8125 26.1481 32.6479 25.7507 32.3549 25.4576C32.0618 25.1646 31.6644 25 31.25 25C30.8356 25 30.4382 25.1646 30.1452 25.4576C29.8521 25.7507 29.6875 26.1481 29.6875 26.5625V28.125C29.6875 28.5394 29.8521 28.9368 30.1452 29.2299C30.4382 29.5229 30.8356 29.6875 31.25 29.6875C31.6644 29.6875 32.0618 29.5229 32.3549 29.2299C32.6479 28.9368 32.8125 28.5394 32.8125 28.125V26.5625ZM9.37502 15.625C9.37502 15.2106 9.53964 14.8132 9.83266 14.5201C10.1257 14.2271 10.5231 14.0625 10.9375 14.0625H21.875C22.2894 14.0625 22.6868 14.2271 22.9799 14.5201C23.2729 14.8132 23.4375 15.2106 23.4375 15.625C23.4375 16.0394 23.2729 16.4368 22.9799 16.7299C22.6868 17.0229 22.2894 17.1875 21.875 17.1875H10.9375C10.5231 17.1875 10.1257 17.0229 9.83266 16.7299C9.53964 16.4368 9.37502 16.0394 9.37502 15.625ZM10.9375 20.3125C10.5231 20.3125 10.1257 20.4771 9.83266 20.7701C9.53964 21.0632 9.37502 21.4606 9.37502 21.875C9.37502 22.2894 9.53964 22.6868 9.83266 22.9799C10.1257 23.2729 10.5231 23.4375 10.9375 23.4375H17.1875C17.6019 23.4375 17.9993 23.2729 18.2924 22.9799C18.5854 22.6868 18.75 22.2894 18.75 21.875C18.75 21.4606 18.5854 21.0632 18.2924 20.7701C17.9993 20.4771 17.6019 20.3125 17.1875 20.3125H10.9375Z" fill="#3F9EC8"/>
</svg>
